<svg width="1325" height="468" xmlns="http://www.w3.org/2000/svg" xmlns:xlink="http://www.w3.org/1999/xlink" xml:space="preserve" overflow="hidden"><defs><clipPath id="clip0"><rect x="2456" y="1553" width="1325" height="468"/></clipPath><clipPath id="clip1"><rect x="2460" y="1607" width="296" height="295"/></clipPath><clipPath id="clip2"><rect x="2460" y="1607" width="296" height="295"/></clipPath><clipPath id="clip3"><rect x="2460" y="1607" width="296" height="295"/></clipPath></defs><g clip-path="url(#clip0)" transform="translate(-2456 -1553)"><g clip-path="url(#clip1)"><g clip-path="url(#clip2)"><g clip-path="url(#clip3)"><path d="M2460.49 1772.75C2460.49 1765.65 2460.49 1758.55 2460.49 1751.46 2462.35 1747.57 2464.38 1743.69 2466.58 1739.8 2464.62 1734.07 2462.6 1728.5 2460.49 1723.07 2460.49 1718.34 2460.49 1713.61 2460.49 1708.88 2465.2 1690.67 2477.02 1680.87 2495.97 1679.48 2496.78 1659.59 2506.91 1647.59 2526.39 1643.49 2531.46 1642.82 2536.52 1642.82 2541.59 1643.49 2545.29 1644.68 2549.01 1645.35 2552.74 1645.52 2556.65 1639.41 2561.04 1633.67 2565.92 1628.29 2575.92 1621.06 2587.07 1618.69 2599.38 1621.19 2604.25 1622.78 2608.64 1625.15 2612.55 1628.29 2609.29 1634.26 2605.24 1639.66 2600.39 1644.51 2590.68 1648.99 2580.54 1652.03 2569.98 1653.63 2575.55 1659.21 2582.14 1663.09 2589.75 1665.29 2587.01 1676.9 2588.36 1688.06 2593.8 1698.74 2595.83 1700.77 2597.86 1702.8 2599.88 1704.83 2594.45 1666.5 2610.5 1643.02 2648.04 1634.37 2688.81 1629.92 2713.81 1647.66 2723.05 1687.59 2739.1 1692.12 2747.55 1702.77 2748.4 1719.53 2747.39 1727.79 2745.19 1735.73 2741.81 1743.35 2721.05 1727.67 2705.17 1708.07 2694.16 1684.55 2692.86 1697.03 2695.06 1708.86 2700.75 1720.03 2686.64 1719.96 2672.45 1720.13 2658.17 1720.54 2654.75 1721 2651.37 1721.67 2648.04 1722.57 2665.06 1725.22 2681.62 1729.61 2697.71 1735.75 2712.69 1741.45 2724.35 1751.08 2732.68 1764.64 2736.06 1773.42 2736.06 1782.21 2732.68 1790.99 2722.75 1807.81 2711.09 1823.35 2697.71 1837.63 2699.71 1849.06 2702.07 1860.38 2704.81 1871.59 2688.96 1871.35 2676.97 1864.43 2668.82 1850.81 2665.93 1843.66 2662.39 1836.9 2658.17 1830.53 2651.45 1828.57 2644.69 1826.71 2637.9 1824.96 2636.15 1824.43 2634.8 1823.41 2633.84 1821.91 2639.73 1815.68 2645.3 1809.1 2650.57 1802.15 2663.16 1786.13 2679.55 1779.21 2699.74 1781.36 2694.56 1774.67 2687.64 1771.46 2678.96 1771.73 2667.13 1773 2656.49 1777.22 2647.02 1784.41 2635.19 1794.21 2623.37 1804 2611.54 1813.8 2594 1825.18 2576.42 1825.18 2558.83 1813.8 2545.38 1794.1 2547.06 1775.85 2563.9 1759.06 2567.1 1757.63 2570.14 1755.94 2573.02 1753.99 2562.08 1751.98 2551.27 1752.65 2540.58 1756.02 2539.13 1756.49 2537.95 1757.34 2537.03 1758.55 2522.42 1749.76 2506.71 1746.88 2489.89 1749.94 2500.99 1752.73 2511.12 1757.46 2520.3 1764.13 2530.76 1775.7 2534.14 1789.05 2530.44 1804.17 2512.51 1812.58 2495.95 1810.38 2480.77 1797.58 2475.53 1792.35 2470.29 1787.11 2465.05 1781.87 2463.23 1778.89 2461.71 1775.85 2460.49 1772.75Z" fill="#518AC5" fill-rule="evenodd" fill-opacity="0.999"/></g></g></g><text fill="#F2F2F2" fill-opacity="1" font-family="Segoe UI,Segoe UI_MSFontService,sans-serif" font-style="normal" font-variant="normal" font-weight="400" font-stretch="normal" font-size="220" text-anchor="start" direction="ltr" writing-mode="lr-tb" unicode-bidi="normal" text-decoration="none" transform="matrix(1 0 0 1 2770.48 1837)">dmf<tspan fill="#5189C5" fill-opacity="1" font-family="Segoe UI,Segoe UI_MSFontService,sans-serif" font-style="normal" font-variant="normal" font-weight="400" font-stretch="normal" font-size="220" text-anchor="start" direction="ltr" writing-mode="lr-tb" unicode-bidi="normal" text-decoration="none" x="387.865" y="0">-</tspan><tspan fill="#5189C5" fill-opacity="1" font-family="Segoe UI,Segoe UI_MSFontService,sans-serif" font-style="normal" font-variant="normal" font-weight="400" font-stretch="normal" font-size="220" text-anchor="start" direction="ltr" writing-mode="lr-tb" unicode-bidi="normal" text-decoration="none" x="476.094" y="0">utils</tspan></text></g></svg>