<svg width="1320" height="467" xmlns="http://www.w3.org/2000/svg" xmlns:xlink="http://www.w3.org/1999/xlink" xml:space="preserve" overflow="hidden"><defs><clipPath id="clip0"><rect x="664" y="1485" width="1320" height="467"/></clipPath><clipPath id="clip1"><rect x="665" y="1538" width="296" height="296"/></clipPath><clipPath id="clip2"><rect x="665" y="1538" width="296" height="296"/></clipPath><clipPath id="clip3"><rect x="665" y="1538" width="296" height="296"/></clipPath></defs><g clip-path="url(#clip0)" transform="translate(-664 -1485)"><g clip-path="url(#clip1)"><g clip-path="url(#clip2)"><g clip-path="url(#clip3)"><path d="M-0.505155 165.186C-0.505155 158.114-0.505155 151.041-0.505155 143.969 1.34938 140.095 3.37 136.222 5.55671 132.351 3.61266 126.64 1.59204 121.084-0.505155 115.681-0.505155 110.965-0.505155 106.251-0.505155 101.536 4.18328 83.3893 15.9703 73.6229 34.8557 72.2372 35.6556 52.4104 45.7587 40.4551 65.165 36.3712 70.2166 35.6976 75.2681 35.6976 80.3197 36.3712 84.0025 37.5491 87.707 38.2227 91.4331 38.3918 95.3213 32.303 99.6992 26.5779 104.567 21.2165 114.528 14.0103 125.641 11.6529 137.907 14.1443 142.765 15.7293 147.143 18.0867 151.041 21.2165 147.792 27.1653 143.751 32.5537 138.918 37.3815 129.239 41.8428 119.136 44.8737 108.608 46.4743 114.159 52.0295 120.726 55.9023 128.309 58.0928 125.585 69.6677 126.931 80.7811 132.351 91.4331 134.371 93.4537 136.392 95.4743 138.412 97.4949 132.995 59.302 148.992 35.8964 186.402 27.2784 227.038 22.8412 251.958 40.5216 261.165 80.3197 277.157 84.8333 285.576 95.4416 286.423 112.144 285.416 120.384 283.226 128.297 279.856 135.887 259.172 120.258 243.344 100.725 232.371 77.2887 231.077 89.7277 233.265 101.515 238.938 112.65 224.874 112.578 210.729 112.746 196.505 113.155 193.094 113.611 189.725 114.284 186.402 115.175 203.365 117.816 219.868 122.195 235.907 128.309 250.84 133.992 262.458 143.59 270.763 157.103 274.13 165.86 274.13 174.615 270.763 183.371 260.865 200.128 249.247 215.619 235.907 229.846 237.897 241.238 240.255 252.519 242.98 263.691 227.19 263.457 215.234 256.553 207.114 242.98 204.24 235.856 200.704 229.121 196.505 222.773 189.802 220.814 183.066 218.962 176.299 217.217 174.558 216.688 173.212 215.678 172.258 214.186 178.121 207.977 183.677 201.41 188.928 194.485 201.473 178.528 217.807 171.624 237.928 173.773 232.77 167.101 225.867 163.903 217.217 164.175 205.434 165.436 194.826 169.646 185.392 176.804 173.605 186.571 161.818 196.337 150.031 206.103 132.545 217.445 115.033 217.445 97.4949 206.103 84.0892 186.466 85.773 168.28 102.546 151.547 105.74 150.119 108.771 148.435 111.639 146.495 100.739 144.487 89.9619 145.16 79.3093 148.516 77.8638 148.985 76.6851 149.828 75.7733 151.041 61.2106 142.273 45.5507 139.411 28.7938 142.454 39.8505 145.236 49.9536 149.95 59.1031 156.598 69.5219 168.132 72.8895 181.435 69.2062 196.505 51.3315 204.879 34.8297 202.69 19.701 189.938 14.4811 184.718 9.26118 179.499 4.04124 174.279 2.22181 171.311 0.706344 168.28-0.505155 165.186Z" fill="#518AC5" fill-rule="evenodd" fill-opacity="0.999" transform="matrix(1 0 0 1.0034 666 1539)"/></g></g></g><text fill="#0D0D0D" fill-opacity="1" font-family="Segoe UI,Segoe UI_MSFontService,sans-serif" font-style="normal" font-variant="normal" font-weight="400" font-stretch="normal" font-size="220" text-anchor="start" direction="ltr" writing-mode="lr-tb" unicode-bidi="normal" text-decoration="none" transform="matrix(1 0 0 1 974.909 1768)">dmf<tspan fill="#5189C5" fill-opacity="1" font-family="Segoe UI,Segoe UI_MSFontService,sans-serif" font-style="normal" font-variant="normal" font-weight="400" font-stretch="normal" font-size="220" text-anchor="start" direction="ltr" writing-mode="lr-tb" unicode-bidi="normal" text-decoration="none" x="387.865" y="0">-</tspan><tspan fill="#5189C5" fill-opacity="1" font-family="Segoe UI,Segoe UI_MSFontService,sans-serif" font-style="normal" font-variant="normal" font-weight="400" font-stretch="normal" font-size="220" text-anchor="start" direction="ltr" writing-mode="lr-tb" unicode-bidi="normal" text-decoration="none" x="476.094" y="0">utils</tspan></text></g></svg>