<svg width="1325" height="468" xmlns="http://www.w3.org/2000/svg" xmlns:xlink="http://www.w3.org/1999/xlink" xml:space="preserve" overflow="hidden"><defs><clipPath id="clip0"><rect x="806" y="334" width="1325" height="468"/></clipPath><clipPath id="clip1"><rect x="810" y="421" width="296" height="294"/></clipPath><clipPath id="clip2"><rect x="810" y="421" width="296" height="294"/></clipPath><clipPath id="clip3"><rect x="810" y="421" width="296" height="294"/></clipPath></defs><g clip-path="url(#clip0)" transform="translate(-806 -334)"><g clip-path="url(#clip1)"><g clip-path="url(#clip2)"><g clip-path="url(#clip3)"><path d="M-0.505154 165.186C-0.505154 158.113-0.505154 151.041-0.505154 143.969 1.34938 140.094 3.37 136.222 5.5567 132.35 3.61265 126.64 1.59203 121.084-0.505154 115.68-0.505154 110.965-0.505154 106.251-0.505154 101.536 4.18328 83.3892 15.9703 73.6228 34.8557 72.2371 35.6555 52.4104 45.7586 40.4551 65.1649 36.3711 70.2165 35.6976 75.268 35.6976 80.3196 36.3711 84.0024 37.549 87.7069 38.2226 91.433 38.3917 95.3211 32.3029 99.6991 26.5779 104.567 21.2165 114.528 14.0103 125.641 11.6529 137.907 14.1443 142.765 15.7293 147.142 18.0867 151.041 21.2165 147.792 27.1653 143.751 32.5537 138.917 37.3814 129.239 41.8428 119.136 44.8737 108.608 46.4742 114.159 52.0294 120.726 55.9022 128.309 58.0928 125.584 69.6676 126.931 80.781 132.35 91.433 134.371 93.4536 136.392 95.4742 138.412 97.4948 132.995 59.3019 148.992 35.8964 186.402 27.2783 227.038 22.8412 251.958 40.5216 261.165 80.3196 277.157 84.8332 285.576 95.4415 286.423 112.144 285.415 120.383 283.226 128.297 279.856 135.887 259.172 120.258 243.344 100.725 232.371 77.2886 231.077 89.7276 233.265 101.515 238.938 112.649 224.874 112.578 210.729 112.745 196.505 113.155 193.093 113.611 189.725 114.284 186.402 115.175 203.365 117.816 219.867 122.195 235.907 128.309 250.84 133.992 262.458 143.59 270.763 157.103 274.13 165.859 274.13 174.615 270.763 183.371 260.865 200.128 249.246 215.619 235.907 229.845 237.896 241.238 240.255 252.519 242.979 263.691 227.19 263.456 215.234 256.553 207.113 242.979 204.24 235.856 200.704 229.121 196.505 222.773 189.802 220.814 183.066 218.961 176.299 217.216 174.558 216.688 173.211 215.678 172.258 214.186 178.12 207.977 183.677 201.41 188.928 194.484 201.473 178.528 217.806 171.624 237.928 173.773 232.77 167.101 225.867 163.902 217.216 164.175 205.434 165.436 194.826 169.646 185.392 176.804 173.604 186.571 161.818 196.336 150.031 206.103 132.544 217.445 115.033 217.445 97.4948 206.103 84.0891 186.466 85.7729 168.28 102.546 151.546 105.74 150.119 108.771 148.435 111.639 146.495 100.738 144.487 89.9618 145.16 79.3093 148.515 77.8637 148.985 76.685 149.828 75.7732 151.041 61.2105 142.273 45.5507 139.411 28.7938 142.454 39.8504 145.236 49.9535 149.95 59.1031 156.598 69.5218 168.132 72.8895 181.434 69.2062 196.505 51.3315 204.879 34.8297 202.69 19.701 189.938 14.4811 184.718 9.26117 179.499 4.04124 174.278 2.22181 171.311 0.706343 168.28-0.505154 165.186Z" fill="#518AC5" fill-rule="evenodd" fill-opacity="0.999" transform="matrix(1.0034 0 0 1 811 421)"/></g></g></g><text fill="#0D0D0D" fill-opacity="1" font-family="Segoe UI,Segoe UI_MSFontService,sans-serif" font-style="normal" font-variant="normal" font-weight="400" font-stretch="normal" font-size="220" text-anchor="start" direction="ltr" writing-mode="lr-tb" unicode-bidi="normal" text-decoration="none" transform="matrix(1 0 0 1 1120.78 617)">dmf<tspan fill="#5189C5" fill-opacity="1" font-family="Segoe UI,Segoe UI_MSFontService,sans-serif" font-style="normal" font-variant="normal" font-weight="400" font-stretch="normal" font-size="220" text-anchor="start" direction="ltr" writing-mode="lr-tb" unicode-bidi="normal" text-decoration="none" x="387.865" y="0">-</tspan><tspan fill="#5189C5" fill-opacity="1" font-family="Segoe UI,Segoe UI_MSFontService,sans-serif" font-style="normal" font-variant="normal" font-weight="400" font-stretch="normal" font-size="220" text-anchor="start" direction="ltr" writing-mode="lr-tb" unicode-bidi="normal" text-decoration="none" x="476.094" y="0">utils</tspan><tspan fill="#767171" fill-opacity="1" font-family="Segoe UI,Segoe UI_MSFontService,sans-serif" font-style="normal" font-variant="normal" font-weight="400" font-stretch="normal" font-size="55" text-anchor="start" direction="ltr" writing-mode="lr-tb" unicode-bidi="normal" text-decoration="none" x="48.125" y="76">D</tspan><tspan fill="#767171" fill-opacity="1" font-family="Segoe UI,Segoe UI_MSFontService,sans-serif" font-style="normal" font-variant="normal" font-weight="400" font-stretch="normal" font-size="55" text-anchor="start" direction="ltr" writing-mode="lr-tb" unicode-bidi="normal" text-decoration="none" x="86.5105" y="76">ynamics of Memory Formation</tspan></text></g></svg>